<svg width="22" height="19" viewBox="0 0 22 19" fill="none" xmlns="http://www.w3.org/2000/svg">
    <path d="M15.4944 0.589844C13.5597 0.589844 11.9064 1.96892 10.9981 2.91969C10.0898 1.96892 8.44028 0.589844 6.50644 0.589844C3.17321 0.589844 0.84613 2.91323 0.84613 6.23907C0.84613 9.90369 3.73628 12.2723 6.53228 14.5634C7.85228 15.6462 9.21844 16.7649 10.2661 18.0055C10.4424 18.2132 10.7009 18.3332 10.9723 18.3332H11.0258C11.2981 18.3332 11.5557 18.2123 11.7311 18.0055C12.7806 16.7649 14.1458 15.6452 15.4667 14.5634C18.2618 12.2732 21.1538 9.90461 21.1538 6.23907C21.1538 2.91323 18.8267 0.589844 15.4944 0.589844Z" fill="currentColor"/>
</svg>
