<svg width="20" height="20" viewBox="0 0 20 20" fill="none" xmlns="http://www.w3.org/2000/svg">
<path d="M8.17381 2.07938C8.58559 2.26199 8.85415 2.67378 8.85415 3.12495V5.41662H12.8646C16.345 5.41662 19.1666 8.23823 19.1666 11.7187C19.1666 15.7757 16.2484 17.5875 15.5788 17.9527C15.4892 18.0029 15.389 18.0208 15.2887 18.0208C14.8984 18.0208 14.5833 17.7021 14.5833 17.3154C14.5833 17.0468 14.7373 16.7998 14.9342 16.6171C15.2708 16.302 15.7291 15.6718 15.7291 14.5869C15.7291 12.6891 14.1894 11.1494 12.2916 11.1494H8.85415V13.441C8.85415 13.8922 8.58917 14.304 8.17381 14.4866C7.75844 14.6692 7.27863 14.594 6.94204 14.2932L1.21287 9.13699C0.972961 8.91499 0.833313 8.60704 0.833313 8.2812C0.833313 7.95535 0.972961 7.64741 1.21287 7.42898L6.94204 2.27273C7.27863 1.96837 7.76202 1.89318 8.17381 2.07938Z" fill="currentColor"/>
</svg>
