<svg width="18" height="23" viewBox="0 0 18 23" fill="none" xmlns="http://www.w3.org/2000/svg">
<path d="M2.625 9.75C2.52554 9.75 2.43016 9.78951 2.35984 9.85984C2.28951 9.93017 2.25 10.0255 2.25 10.125V19.875C2.25 20.082 2.418 20.25 2.625 20.25H15.375C15.4745 20.25 15.5698 20.2105 15.6402 20.1402C15.7105 20.0698 15.75 19.9745 15.75 19.875V10.125C15.75 10.0255 15.7105 9.93017 15.6402 9.85984C15.5698 9.78951 15.4745 9.75 15.375 9.75H13.875C13.5766 9.75 13.2905 9.63148 13.0795 9.4205C12.8685 9.20952 12.75 8.92337 12.75 8.625C12.75 8.32664 12.8685 8.04049 13.0795 7.82951C13.2905 7.61853 13.5766 7.5 13.875 7.5H15.375C16.824 7.5 18 8.676 18 10.125V19.875C18 20.5712 17.7234 21.2389 17.2312 21.7312C16.7389 22.2234 16.0712 22.5 15.375 22.5H2.625C1.92881 22.5 1.26113 22.2234 0.768845 21.7312C0.276562 21.2389 0 20.5712 0 19.875V10.125C0 8.676 1.176 7.5 2.625 7.5H4.125C4.42337 7.5 4.70952 7.61853 4.9205 7.82951C5.13147 8.04049 5.25 8.32664 5.25 8.625C5.25 8.92337 5.13147 9.20952 4.9205 9.4205C4.70952 9.63148 4.42337 9.75 4.125 9.75H2.625ZM8.7345 0.265505C8.76933 0.230582 8.81072 0.202875 8.85628 0.18397C8.90183 0.165066 8.95067 0.155334 9 0.155334C9.04933 0.155334 9.09817 0.165066 9.14372 0.18397C9.18928 0.202875 9.23067 0.230582 9.2655 0.265505L13.6095 4.6095C13.6621 4.66195 13.6979 4.72883 13.7124 4.80166C13.727 4.87449 13.7195 4.95 13.6911 5.0186C13.6626 5.08721 13.6145 5.14582 13.5527 5.18702C13.4909 5.22822 13.4183 5.25014 13.344 5.25H10.125V13.875C10.125 14.1734 10.0065 14.4595 9.79549 14.6705C9.58452 14.8815 9.29837 15 9 15C8.70163 15 8.41548 14.8815 8.2045 14.6705C7.99353 14.4595 7.875 14.1734 7.875 13.875V5.25H4.656C4.58173 5.25014 4.5091 5.22822 4.44731 5.18702C4.38552 5.14582 4.33735 5.08721 4.30891 5.0186C4.28047 4.95 4.27305 4.87449 4.28757 4.80166C4.3021 4.72883 4.33792 4.66195 4.3905 4.6095L8.7345 0.265505Z" fill="#A9A9A9"/>
</svg>
